# xmcd CD database file
#
# Track frame offsets:
#	150
#	24572
#	43727
#	58432
#	83805
#	106575
#	120477
#	145427
#	153397
#	172460
#	189250
#	203980
#	223020
#
# Disc length: 3357 seconds
#
# Revision: 64
# Processed by: cddbd v1.5.2PL0 Copyright (c) Steve Scherf et al.
# Submitted via: CDex 1.70beta3
#
DISCID=bf0d1b0d
DTITLE=椎名林檎 - 勝訴ストリップ
DYEAR=2000
DGENRE=J-Rock
TTITLE0=虚言症
TTITLE1=浴室
TTITLE2=弁解ドビュッシー
TTITLE3=ギブス
TTITLE4=闇に降る雨
TTITLE5=アイデンティティ
TTITLE6=罪と罰
TTITLE7=ストイシズム
TTITLE8=月に負け犬
TTITLE9=サカナ
TTITLE10=病床パブリック
TTITLE11=本能
TTITLE12=依存症
EXTD=YEAR: 2000
EXTT0=
EXTT1=
EXTT2=
EXTT3=
EXTT4=
EXTT5=
EXTT6=
EXTT7=
EXTT8=
EXTT9=
EXTT10=
EXTT11=
EXTT12=
PLAYORDER=
